<svg width="10" height="132" viewBox="0 0 10 132" fill="none" xmlns="http://www.w3.org/2000/svg">
<path d="M0.231934 0.839999L8.87193 0.84L8.87193 1.65L1.60593 5.046L8.87193 8.424L8.87193 9.246L0.237933 9.246L0.237933 8.406L6.90393 8.406L0.231933 5.328L0.231933 4.758L6.90393 1.686L0.231934 1.686L0.231934 0.839999ZM0.051933 13.6358C0.051933 12.9918 0.197933 12.4418 0.489933 11.9858C0.781933 11.5298 1.18593 11.1798 1.70193 10.9358C2.21793 10.6918 2.80993 10.5698 3.47793 10.5698C4.15793 10.5698 4.75393 10.6938 5.26593 10.9418C5.77793 11.1898 6.17593 11.5418 6.45993 11.9978C6.74793 12.4578 6.89193 13.0038 6.89193 13.6358C6.89193 14.2838 6.74593 14.8358 6.45393 15.2918C6.16593 15.7518 5.76393 16.1018 5.24793 16.3418C4.73593 16.5858 4.14593 16.7078 3.47793 16.7078C2.79793 16.7078 2.19993 16.5858 1.68393 16.3418C1.17193 16.0978 0.771933 15.7458 0.483933 15.2858C0.195933 14.8258 0.051933 14.2758 0.051933 13.6358ZM0.897933 13.6358C0.897933 14.3558 1.13593 14.8918 1.61193 15.2438C2.09193 15.5958 2.71393 15.7718 3.47793 15.7718C4.26193 15.7718 4.88593 15.5938 5.34993 15.2378C5.81393 14.8858 6.04593 14.3518 6.04593 13.6358C6.04593 13.1518 5.93593 12.7518 5.71593 12.4358C5.49993 12.1238 5.19793 11.8898 4.80993 11.7338C4.42593 11.5818 3.98193 11.5058 3.47793 11.5058C2.69793 11.5058 2.07193 11.6858 1.59993 12.0458C1.13193 12.4058 0.897933 12.9358 0.897933 13.6358ZM0.231933 18.0314L6.71193 18.0314L6.71193 18.8234L5.15193 18.8234L5.35593 18.6674C5.54793 18.7394 5.72393 18.8334 5.88393 18.9494C6.04793 19.0654 6.18193 19.1914 6.28593 19.3274C6.43393 19.4954 6.54593 19.6914 6.62193 19.9154C6.70193 20.1394 6.74793 20.3654 6.75993 20.5934C6.77593 20.8214 6.75993 21.0294 6.71193 21.2174L5.88393 21.2174C5.94393 20.9814 5.95793 20.7234 5.92593 20.4434C5.89393 20.1634 5.78193 19.9054 5.58993 19.6694C5.42193 19.4534 5.21993 19.2914 4.98393 19.1834C4.75193 19.0754 4.50393 19.0034 4.23993 18.9674C3.97993 18.9314 3.72193 18.9134 3.46593 18.9134L0.231933 18.9134L0.231933 18.0314ZM0.0519325 24.9804C0.0519325 24.3484 0.191933 23.8004 0.471933 23.3364C0.751933 22.8764 1.14593 22.5184 1.65393 22.2624C2.16193 22.0064 2.75793 21.8784 3.44193 21.8784C4.14993 21.8784 4.76193 22.0044 5.27793 22.2564C5.79393 22.5084 6.19193 22.8624 6.47193 23.3184C6.75193 23.7784 6.89193 24.3204 6.89193 24.9444C6.89193 25.5844 6.74393 26.1304 6.44793 26.5824C6.15593 27.0344 5.73593 27.3764 5.18793 27.6084C4.63993 27.8404 3.98593 27.9464 3.22593 27.9264L3.22593 27.0264L3.53793 27.0264C4.37793 27.0104 5.01193 26.8284 5.43993 26.4804C5.86793 26.1364 6.08193 25.6324 6.08193 24.9684C6.08193 24.2724 5.85593 23.7384 5.40393 23.3664C4.95193 22.9984 4.30793 22.8144 3.47193 22.8144C2.65593 22.8144 2.02193 22.9984 1.56993 23.3664C1.12193 23.7384 0.897933 24.2644 0.897933 24.9444C0.897933 25.4084 1.00393 25.8124 1.21593 26.1564C1.43193 26.5044 1.74193 26.7784 2.14593 26.9784L1.82793 27.8004C1.26393 27.5444 0.825932 27.1664 0.513932 26.6664C0.205932 26.1704 0.0519325 25.6084 0.0519325 24.9804ZM3.22593 22.5024L3.96393 22.5024L3.96393 27.4524L3.22593 27.4524L3.22593 22.5024ZM0.0519321 33.5143C0.0519321 33.0263 0.139932 32.6163 0.315932 32.2843C0.491932 31.9563 0.725932 31.7103 1.01793 31.5463C1.30993 31.3823 1.62793 31.3003 1.97193 31.3003C2.32393 31.3003 2.62393 31.3703 2.87193 31.5103C3.12393 31.6543 3.32993 31.8483 3.48993 32.0923C3.64993 32.3403 3.77193 32.6263 3.85593 32.9503C3.93593 33.2783 4.00593 33.6403 4.06593 34.0363C4.12993 34.4363 4.18393 34.8263 4.22793 35.2063C4.27593 35.5903 4.32193 35.9263 4.36593 36.2143L4.17393 35.9023C4.81393 35.9143 5.28793 35.7903 5.59593 35.5303C5.90393 35.2703 6.05793 34.8183 6.05793 34.1743C6.05793 33.7303 5.95793 33.3543 5.75793 33.0463C5.55793 32.7423 5.24193 32.5283 4.80993 32.4043L5.06193 31.5463C5.64193 31.6943 6.09193 31.9923 6.41193 32.4403C6.73193 32.8883 6.89193 33.4703 6.89193 34.1863C6.89193 34.7783 6.77993 35.2803 6.55593 35.6923C6.33593 36.1083 6.01593 36.4023 5.59593 36.5743C5.40793 36.6543 5.19793 36.7063 4.96593 36.7303C4.73393 36.7543 4.49793 36.7663 4.25793 36.7663L0.231932 36.7663L0.231932 35.9803L1.85793 35.9803L1.76193 36.2083C1.20593 35.9883 0.781932 35.6463 0.489932 35.1823C0.197932 34.7183 0.0519321 34.1623 0.0519321 33.5143ZM0.813932 33.6163C0.813932 34.0283 0.887932 34.3883 1.03593 34.6963C1.18393 35.0043 1.38593 35.2523 1.64193 35.4403C1.90193 35.6283 2.19393 35.7503 2.51793 35.8063C2.72593 35.8543 2.95393 35.8803 3.20193 35.8843C3.45393 35.8883 3.64193 35.8903 3.76593 35.8903L3.59193 36.2263C3.55193 35.9263 3.51193 35.6003 3.47193 35.2483C3.43193 34.9003 3.38593 34.5563 3.33393 34.2163C3.28193 33.8803 3.21993 33.5763 3.14793 33.3043C3.09593 33.1203 3.02193 32.9423 2.92593 32.7703C2.83393 32.5983 2.70993 32.4563 2.55393 32.3443C2.39793 32.2363 2.20393 32.1823 1.97193 32.1823C1.78393 32.1823 1.60193 32.2283 1.42593 32.3203C1.24993 32.4163 1.10393 32.5683 0.987932 32.7763C0.871932 32.9883 0.813932 33.2683 0.813932 33.6163ZM0.0519318 41.2383C0.0519318 40.6423 0.201932 40.1383 0.501932 39.7263C0.805932 39.3143 1.21593 39.0023 1.73193 38.7903C2.25193 38.5783 2.83393 38.4723 3.47793 38.4723C4.13393 38.4723 4.71793 38.5783 5.22993 38.7903C5.74593 39.0063 6.15193 39.3223 6.44793 39.7383C6.74393 40.1543 6.89193 40.6663 6.89193 41.2743C6.89193 41.8663 6.74193 42.3743 6.44193 42.7983C6.14193 43.2223 5.73393 43.5463 5.21793 43.7703C4.70193 43.9983 4.12193 44.1123 3.47793 44.1123C2.82993 44.1123 2.24793 43.9983 1.73193 43.7703C1.21593 43.5423 0.805932 43.2143 0.501932 42.7863C0.201932 42.3583 0.0519318 41.8423 0.0519318 41.2383ZM0.231932 38.3223L8.87193 38.3223L8.87193 39.2103L5.10993 39.2103L5.10993 39.1143L0.231932 39.1143L0.231932 38.3223ZM0.873932 41.1483C0.873932 41.6003 0.987932 41.9763 1.21593 42.2763C1.44393 42.5763 1.75393 42.8003 2.14593 42.9483C2.54193 43.1003 2.98593 43.1763 3.47793 43.1763C3.96593 43.1763 4.40593 43.1023 4.79793 42.9543C5.18993 42.8063 5.49993 42.5803 5.72793 42.2763C5.95593 41.9763 6.06993 41.5943 6.06993 41.1303C6.06993 40.6783 5.95993 40.3023 5.73993 40.0023C5.51993 39.7063 5.21393 39.4843 4.82193 39.3363C4.43393 39.1883 3.98593 39.1143 3.47793 39.1143C2.97793 39.1143 2.52993 39.1883 2.13393 39.3363C1.74193 39.4843 1.43393 39.7083 1.20993 40.0083C0.985932 40.3083 0.873932 40.6883 0.873932 41.1483ZM0.0519315 48.1358C0.0519315 47.4918 0.197932 46.9418 0.489932 46.4858C0.781932 46.0298 1.18593 45.6798 1.70193 45.4358C2.21793 45.1918 2.80993 45.0698 3.47793 45.0698C4.15793 45.0698 4.75393 45.1938 5.26593 45.4418C5.77793 45.6898 6.17593 46.0418 6.45993 46.4978C6.74793 46.9578 6.89193 47.5038 6.89193 48.1358C6.89193 48.7838 6.74593 49.3358 6.45393 49.7918C6.16593 50.2518 5.76393 50.6018 5.24793 50.8418C4.73593 51.0858 4.14593 51.2078 3.47793 51.2078C2.79793 51.2078 2.19993 51.0858 1.68393 50.8418C1.17193 50.5978 0.771931 50.2458 0.483931 49.7858C0.195931 49.3258 0.0519315 48.7758 0.0519315 48.1358ZM0.897932 48.1358C0.897932 48.8558 1.13593 49.3918 1.61193 49.7438C2.09193 50.0958 2.71393 50.2718 3.47793 50.2718C4.26193 50.2718 4.88593 50.0938 5.34993 49.7378C5.81393 49.3858 6.04593 48.8518 6.04593 48.1358C6.04593 47.6518 5.93593 47.2518 5.71593 46.9358C5.49993 46.6238 5.19793 46.3898 4.80993 46.2338C4.42593 46.0818 3.98193 46.0058 3.47793 46.0058C2.69793 46.0058 2.07193 46.1858 1.59993 46.5458C1.13193 46.9058 0.897932 47.4358 0.897932 48.1358ZM0.0699312 55.0094C0.0699312 54.6214 0.129931 54.2814 0.249931 53.9894C0.369931 53.7014 0.531931 53.4554 0.735931 53.2514C0.939931 53.0514 1.17193 52.8894 1.43193 52.7654C1.69593 52.6414 1.97393 52.5514 2.26593 52.4954C2.56193 52.4394 2.85593 52.4114 3.14793 52.4114L6.71193 52.4114L6.71193 53.2994L3.40593 53.2994C3.04993 53.2994 2.71993 53.3334 2.41593 53.4014C2.11193 53.4694 1.84593 53.5774 1.61793 53.7254C1.39393 53.8774 1.21993 54.0714 1.09593 54.3074C0.971931 54.5474 0.909931 54.8374 0.909931 55.1774C0.909931 55.4894 0.963931 55.7634 1.07193 55.9994C1.17993 56.2394 1.33393 56.4394 1.53393 56.5994C1.73793 56.7634 1.98393 56.8874 2.27193 56.9714C2.56393 57.0554 2.89193 57.0974 3.25593 57.0974L3.11793 57.7214C2.45393 57.7214 1.89593 57.6054 1.44393 57.3734C0.991931 57.1414 0.649931 56.8214 0.417931 56.4134C0.185931 56.0054 0.0699312 55.5374 0.0699312 55.0094ZM0.231931 57.1874L1.82793 57.1874L1.82793 57.0974L6.71193 57.0974L6.71193 57.9794L0.231931 57.9794L0.231931 57.1874ZM0.231931 63.1844C0.155931 62.8204 0.125931 62.4604 0.141931 62.1044C0.157931 61.7524 0.233931 61.4364 0.369931 61.1564C0.505931 60.8804 0.717931 60.6704 1.00593 60.5264C1.24593 60.4104 1.48793 60.3464 1.73193 60.3344C1.97993 60.3264 2.26193 60.3224 2.57793 60.3224L8.51193 60.3224L8.51193 61.1984L2.61393 61.1984C2.34193 61.1984 2.11393 61.2004 1.92993 61.2044C1.74993 61.2124 1.58993 61.2544 1.44993 61.3304C1.18193 61.4744 1.02193 61.7024 0.969931 62.0144C0.917931 62.3304 0.929931 62.7204 1.00593 63.1844L0.231931 63.1844ZM5.95593 58.9364L6.71193 58.9364L6.71193 63.1844L5.95593 63.1844L5.95593 58.9364ZM0.231931 69.2658L8.87193 69.2658L8.87193 72.6018C8.87193 72.6858 8.86793 72.7798 8.85993 72.8838C8.85593 72.9918 8.84393 73.0998 8.82393 73.2078C8.75593 73.6598 8.59793 74.0418 8.34993 74.3538C8.10593 74.6698 7.79793 74.9078 7.42593 75.0678C7.05393 75.2318 6.64193 75.3138 6.18993 75.3138C5.74193 75.3138 5.33193 75.2318 4.95993 75.0678C4.58793 74.9038 4.27793 74.6638 4.02993 74.3478C3.78593 74.0358 3.62993 73.6558 3.56193 73.2078C3.54593 73.0998 3.53393 72.9918 3.52593 72.8838C3.51793 72.7798 3.51393 72.6858 3.51393 72.6018L3.51393 70.1478L0.231931 70.1478L0.231931 69.2658ZM4.35393 70.1478L4.35393 72.5778C4.35393 72.6498 4.35793 72.7338 4.36593 72.8298C4.37393 72.9258 4.38793 73.0198 4.40793 73.1118C4.47193 73.4078 4.59393 73.6498 4.77393 73.8378C4.95393 74.0298 5.16793 74.1718 5.41593 74.2638C5.66393 74.3598 5.92193 74.4078 6.18993 74.4078C6.45793 74.4078 6.71593 74.3598 6.96393 74.2638C7.21593 74.1718 7.43193 74.0298 7.61193 73.8378C7.79193 73.6498 7.91393 73.4078 7.97793 73.1118C7.99793 73.0198 8.00993 72.9258 8.01393 72.8298C8.02193 72.7338 8.02593 72.6498 8.02593 72.5778L8.02593 70.1478L4.35393 70.1478ZM0.0519301 80.006C0.0519301 79.146 0.24193 78.42 0.62193 77.828C1.00593 77.236 1.53593 76.788 2.21193 76.484C2.88793 76.18 3.66793 76.028 4.55193 76.028C5.43593 76.028 6.21593 76.18 6.89193 76.484C7.56793 76.788 8.09593 77.236 8.47593 77.828C8.85993 78.42 9.05193 79.146 9.05193 80.006C9.05193 80.87 8.85993 81.596 8.47593 82.184C8.09593 82.776 7.56793 83.224 6.89193 83.528C6.21593 83.836 5.43593 83.99 4.55193 83.99C3.66793 83.99 2.88793 83.836 2.21193 83.528C1.53593 83.224 1.00593 82.776 0.62193 82.184C0.24193 81.596 0.05193 80.87 0.0519301 80.006ZM0.89793 80.006C0.89793 80.682 1.05193 81.246 1.35993 81.698C1.66793 82.15 2.09593 82.488 2.64393 82.712C3.19593 82.94 3.83193 83.054 4.55193 83.054C5.27193 83.054 5.90593 82.94 6.45393 82.712C7.00193 82.488 7.42993 82.15 7.73793 81.698C8.04593 81.246 8.20193 80.682 8.20593 80.006C8.20593 79.33 8.05193 78.768 7.74393 78.32C7.43593 77.872 7.00593 77.534 6.45393 77.306C5.90593 77.082 5.27193 76.968 4.55193 76.964C3.83193 76.96 3.19793 77.07 2.64993 77.294C2.10593 77.522 1.67793 77.862 1.36593 78.314C1.05793 78.766 0.90193 79.33 0.89793 80.006ZM0.23193 87.2552L8.02593 87.2552L8.02593 84.2372L8.87193 84.2372L8.87193 91.1552L8.02593 91.1552L8.02593 88.1372L0.23193 88.1372L0.23193 87.2552ZM0.23193 92.1173L8.87193 92.1173L8.87193 95.4533C8.87193 95.5373 8.86793 95.6313 8.85993 95.7353C8.85593 95.8433 8.84393 95.9513 8.82393 96.0593C8.75593 96.5113 8.59793 96.8933 8.34993 97.2053C8.10593 97.5213 7.79793 97.7593 7.42593 97.9193C7.05393 98.0833 6.64193 98.1653 6.18993 98.1653C5.53793 98.1653 4.97193 97.9933 4.49193 97.6493C4.01193 97.3053 3.70993 96.8133 3.58593 96.1733L3.51393 95.8673L3.51393 92.9993L0.23193 92.9993L0.23193 92.1173ZM0.231929 97.3493L3.74793 95.6453L4.07193 96.4913L0.231929 98.3633L0.231929 97.3493ZM4.35393 92.9993L4.35393 95.4293C4.35393 95.5013 4.35793 95.5853 4.36593 95.6813C4.37393 95.7773 4.38793 95.8713 4.40793 95.9633C4.47193 96.2593 4.59393 96.5013 4.77393 96.6893C4.95393 96.8813 5.16793 97.0233 5.41593 97.1153C5.66393 97.2113 5.92193 97.2593 6.18993 97.2593C6.45793 97.2593 6.71593 97.2113 6.96393 97.1153C7.21593 97.0233 7.43193 96.8813 7.61193 96.6893C7.79193 96.5013 7.91393 96.2593 7.97793 95.9633C7.99793 95.8713 8.00993 95.7773 8.01393 95.6813C8.02193 95.5853 8.02593 95.5013 8.02593 95.4293L8.02593 92.9993L4.35393 92.9993ZM0.231929 102.09L8.87193 102.09L8.87193 105.426C8.87193 105.51 8.86793 105.604 8.85993 105.708C8.85593 105.816 8.84393 105.924 8.82393 106.032C8.75593 106.484 8.59793 106.866 8.34993 107.178C8.10593 107.494 7.79793 107.732 7.42593 107.892C7.05393 108.056 6.64193 108.138 6.18993 108.138C5.74193 108.138 5.33193 108.056 4.95993 107.892C4.58793 107.728 4.27793 107.488 4.02993 107.172C3.78593 106.86 3.62993 106.48 3.56193 106.032C3.54593 105.924 3.53393 105.816 3.52593 105.708C3.51793 105.604 3.51393 105.51 3.51393 105.426L3.51393 102.972L0.231929 102.972L0.231929 102.09ZM4.35393 102.972L4.35393 105.402C4.35393 105.474 4.35793 105.558 4.36593 105.654C4.37393 105.75 4.38793 105.844 4.40793 105.936C4.47193 106.232 4.59393 106.474 4.77393 106.662C4.95393 106.854 5.16793 106.996 5.41593 107.088C5.66393 107.184 5.92193 107.232 6.18993 107.232C6.45793 107.232 6.71593 107.184 6.96393 107.088C7.21593 106.996 7.43193 106.854 7.61193 106.662C7.79193 106.474 7.91393 106.232 7.97793 105.936C7.99793 105.844 8.00993 105.75 8.01393 105.654C8.02193 105.558 8.02593 105.474 8.02593 105.402L8.02593 102.972L4.35393 102.972ZM0.0519286 112.83C0.0519287 111.97 0.241929 111.244 0.621929 110.652C1.00593 110.06 1.53593 109.612 2.21193 109.308C2.88793 109.004 3.66793 108.852 4.55193 108.852C5.43593 108.852 6.21593 109.004 6.89193 109.308C7.56793 109.612 8.09593 110.06 8.47593 110.652C8.85993 111.244 9.05193 111.97 9.05193 112.83C9.05193 113.694 8.85993 114.42 8.47593 115.008C8.09593 115.6 7.56793 116.048 6.89193 116.352C6.21593 116.66 5.43593 116.814 4.55193 116.814C3.66793 116.814 2.88793 116.66 2.21193 116.352C1.53593 116.048 1.00593 115.6 0.621929 115.008C0.241929 114.42 0.0519286 113.694 0.0519286 112.83ZM0.897929 112.83C0.897929 113.506 1.05193 114.07 1.35993 114.522C1.66793 114.974 2.09593 115.312 2.64393 115.536C3.19593 115.764 3.83193 115.878 4.55193 115.878C5.27193 115.878 5.90593 115.764 6.45393 115.536C7.00193 115.312 7.42993 114.974 7.73793 114.522C8.04593 114.07 8.20193 113.506 8.20593 112.83C8.20593 112.154 8.05193 111.592 7.74393 111.144C7.43593 110.696 7.00593 110.358 6.45393 110.13C5.90593 109.906 5.27193 109.792 4.55193 109.788C3.83193 109.784 3.19793 109.894 2.64993 110.118C2.10593 110.346 1.67793 110.686 1.36593 111.138C1.05793 111.59 0.901929 112.154 0.897929 112.83ZM0.231928 120.079L8.02593 120.079L8.02593 117.061L8.87193 117.061L8.87193 123.979L8.02593 123.979L8.02593 120.961L0.231928 120.961L0.231928 120.079ZM0.051928 127.942C0.051928 127.338 0.151928 126.794 0.351928 126.31C0.555928 125.83 0.843928 125.432 1.21593 125.116C1.58793 124.804 2.02993 124.6 2.54193 124.504L2.69193 125.404C2.13193 125.548 1.69193 125.852 1.37193 126.316C1.05593 126.78 0.897928 127.334 0.897928 127.978C0.897928 128.402 0.963928 128.782 1.09593 129.118C1.23193 129.454 1.42393 129.718 1.67193 129.91C1.91993 130.102 2.21393 130.198 2.55393 130.198C2.77793 130.198 2.96793 130.158 3.12393 130.078C3.28393 129.998 3.41593 129.892 3.51993 129.76C3.62393 129.628 3.70993 129.484 3.77793 129.328C3.84993 129.172 3.90793 129.02 3.95193 128.872L4.60593 126.682C4.68193 126.418 4.77793 126.174 4.89393 125.95C5.01393 125.726 5.15593 125.53 5.31993 125.362C5.48793 125.198 5.68393 125.07 5.90793 124.978C6.13193 124.886 6.38793 124.84 6.67593 124.84C7.16393 124.84 7.58593 124.968 7.94193 125.224C8.29793 125.48 8.57193 125.83 8.76393 126.274C8.95593 126.718 9.04993 127.224 9.04593 127.792C9.04593 128.368 8.94393 128.882 8.73993 129.334C8.53593 129.79 8.24393 130.166 7.86393 130.462C7.48793 130.758 7.04193 130.954 6.52593 131.05L6.35793 130.126C6.73393 130.066 7.05993 129.928 7.33593 129.712C7.61193 129.496 7.82393 129.22 7.97193 128.884C8.12393 128.552 8.20193 128.186 8.20593 127.786C8.20593 127.398 8.13993 127.052 8.00793 126.748C7.87993 126.448 7.70393 126.21 7.47993 126.034C7.25593 125.858 6.99993 125.77 6.71193 125.77C6.41993 125.77 6.18593 125.85 6.00993 126.01C5.83393 126.174 5.69593 126.374 5.59593 126.61C5.49593 126.85 5.41393 127.082 5.34993 127.306L4.85193 128.998C4.80393 129.174 4.73393 129.38 4.64193 129.616C4.55393 129.856 4.42593 130.088 4.25793 130.312C4.09393 130.54 3.87793 130.728 3.60993 130.876C3.34193 131.024 3.00193 131.098 2.58993 131.098C2.18993 131.098 1.83193 131.018 1.51593 130.858C1.19993 130.702 0.933928 130.48 0.717928 130.192C0.501928 129.908 0.337928 129.574 0.225928 129.19C0.109928 128.81 0.051928 128.394 0.051928 127.942Z" fill="#03839E"/>
</svg>
